<svg width="229" height="229" viewBox="0 0 229 229" fill="none" xmlns="http://www.w3.org/2000/svg">
<path d="M178.971 112.059C178.462 112.059 177.958 111.951 177.494 111.741C177.03 111.531 176.616 111.225 176.28 110.842C172.586 106.635 168.037 103.264 162.937 100.954C157.837 98.6441 152.303 97.4481 146.704 97.446C138.331 97.446 130.008 100.194 123.281 105.182C122.904 105.461 122.475 105.664 122.02 105.778C121.564 105.892 121.09 105.915 120.626 105.846C120.161 105.777 119.715 105.617 119.312 105.375C118.91 105.133 118.559 104.815 118.279 104.438C117.999 104.06 117.797 103.632 117.683 103.176C117.569 102.72 117.546 102.247 117.615 101.782C117.684 101.318 117.844 100.872 118.086 100.469C118.327 100.066 118.646 99.715 119.023 99.4354C127.046 93.5224 136.745 90.3212 146.711 90.2969C160.093 90.2969 172.831 96.0648 181.669 106.119C182.121 106.638 182.413 107.275 182.513 107.956C182.612 108.636 182.514 109.33 182.229 109.956C181.945 110.582 181.487 111.113 180.909 111.486C180.331 111.859 179.659 112.058 178.971 112.059Z" fill="#4C4EF0"/>
<path d="M95.8728 80.4141C95.2667 80.4142 94.6704 80.2602 94.1401 79.9667C93.6097 79.6732 93.1626 79.2498 92.8407 78.7362C92.5188 78.2226 92.3327 77.6356 92.2998 77.0304C92.2668 76.4251 92.3882 75.8214 92.6525 75.276C95.2505 69.9203 96.6034 64.0463 96.6099 58.0938C96.6099 51.1952 94.7851 44.3824 91.3429 38.4141C91.1042 38.007 90.9485 37.5568 90.8845 37.0892C90.8206 36.6217 90.8498 36.1461 90.9704 35.6899C91.091 35.2337 91.3007 34.8059 91.5873 34.431C91.874 34.0562 92.2319 33.7417 92.6406 33.5058C93.0492 33.2698 93.5005 33.117 93.9685 33.0562C94.4364 32.9954 94.9118 33.0277 95.3672 33.1514C95.8226 33.275 96.249 33.4875 96.622 33.7766C96.9949 34.0657 97.307 34.4258 97.5402 34.836C101.336 41.419 103.463 48.8309 103.736 56.4249C104.009 64.0189 102.42 71.5645 99.1074 78.4032C98.8103 79.0074 98.3497 79.5161 97.7779 79.8715C97.2061 80.227 96.5461 80.415 95.8728 80.4141Z" fill="#55FFB8"/>
<path d="M34.4795 161.909L80.3152 74.4097C80.8361 73.4154 81.5837 72.5575 82.4974 71.9054C83.4112 71.2533 84.4655 70.8253 85.5752 70.6561C86.685 70.4868 87.8189 70.5809 88.8855 70.9309C89.9522 71.2809 90.9215 71.8769 91.7151 72.6708L128.548 109.504C129.342 110.298 129.938 111.267 130.288 112.334C130.638 113.4 130.732 114.534 130.563 115.644C130.394 116.754 129.966 117.808 129.314 118.722C128.662 119.635 127.804 120.383 126.809 120.904L39.3099 166.74C38.6344 167.094 37.8634 167.223 37.1093 167.108C36.3553 166.993 35.6577 166.64 35.1183 166.101C34.579 165.561 34.2261 164.864 34.1112 164.11C33.9962 163.356 34.1253 162.585 34.4795 161.909Z" fill="#5CEBFF"/>
<path d="M128.547 109.504L91.7139 72.6708C90.9202 71.8769 89.9509 71.2809 88.8842 70.9309C87.8176 70.5809 86.6837 70.4868 85.5739 70.6561C84.4642 70.8253 83.4099 71.2533 82.4961 71.9054C81.5824 72.5575 80.8348 73.4154 80.3139 74.4097L79.9132 75.1826L93.3168 88.5863C95.6984 90.9673 97.4864 93.8753 98.5364 97.0751C99.5864 100.275 99.8688 103.677 99.361 107.006C98.8532 110.335 97.5693 113.498 95.613 116.239C93.6568 118.981 91.0831 121.223 88.0999 122.786L42.4574 146.695L34.4853 161.909C34.1311 162.585 34.0021 163.356 34.117 164.11C34.232 164.864 34.5848 165.561 35.1242 166.101C35.6635 166.64 36.3611 166.993 37.1152 167.108C37.8692 167.223 38.6403 167.094 39.3158 166.74L126.815 120.904C127.809 120.382 128.666 119.634 129.318 118.72C129.969 117.806 130.396 116.752 130.565 115.642C130.733 114.532 130.639 113.399 130.288 112.332C129.938 111.266 129.341 110.297 128.547 109.504Z" fill="#46E1F7"/>
<path d="M56.7492 157.601L65.716 152.907L42.9233 145.786L39.5527 152.227L56.7492 157.601ZM48.5195 135.102L80.5795 145.121L89.5463 140.426L51.8973 128.661L48.5195 135.102ZM57.4863 117.977L104.403 132.64L113.369 127.946L60.864 111.536L57.4863 117.977ZM66.4602 100.859L127.811 120.031C128.808 119.255 129.575 118.222 130.03 117.043C130.485 115.865 130.611 114.584 130.394 113.34L69.838 94.4185L66.4602 100.859ZM75.427 83.7414L115.216 96.1718L104.31 85.2728L78.7976 77.3008L75.427 83.7414Z" fill="#23F49D"/>
<path d="M130.387 113.34L99.4863 103.686C99.4935 106.119 99.1214 108.524 98.327 110.821L127.811 120.031C128.813 119.23 129.528 118.228 129.979 117.133L130.079 116.882C130.482 115.747 130.588 114.528 130.387 113.34ZM89.5463 140.426L67.5408 133.549L58.5741 138.244L80.5795 145.121L82.6691 144.026L89.5463 140.426ZM93.3105 88.5864C93.6182 88.8942 93.8043 89.252 94.0834 89.574L115.209 96.1792L104.302 85.2731L83.485 78.7681L93.3105 88.5864ZM39.5527 152.227L56.7492 157.601L65.716 152.907L43.7105 146.03L42.451 146.695L39.5527 152.227ZM88.0936 122.786L82.4044 125.77L104.41 132.647L113.377 127.953L90.8344 120.911C89.9399 121.555 89.1026 122.257 88.0936 122.786Z" fill="#2527ED"/>
<path d="M57.2496 68.8281C55.1807 68.8206 53.1579 68.2161 51.4241 67.0873C49.6903 65.9584 48.3191 64.3532 47.4751 62.4643C46.6312 60.5753 46.3503 58.483 46.6662 56.4383C46.9821 54.3937 47.8813 52.4837 49.256 50.9375C47.4869 48.9738 46.5078 46.4244 46.5078 43.7812C46.5078 41.1381 47.4869 38.5887 49.256 36.625C47.8813 35.0788 46.9821 33.1688 46.6662 31.1242C46.3503 29.0795 46.6312 26.9872 47.4751 25.0982C48.3191 23.2093 49.6903 21.6041 51.4241 20.4752C53.1579 19.3464 55.1807 18.7419 57.2496 18.7344C58.1985 18.7344 59.1086 19.1114 59.7797 19.7824C60.4507 20.4534 60.8277 21.3635 60.8277 22.3125C60.8277 23.2615 60.4507 24.1716 59.7797 24.8426C59.1086 25.5136 58.1985 25.8906 57.2496 25.8906C56.3006 25.8906 55.3905 26.2676 54.7194 26.9386C54.0484 27.6097 53.6714 28.5198 53.6714 29.4688C53.6714 30.4177 54.0484 31.3278 54.7194 31.9989C55.3905 32.6699 56.3006 33.0469 57.2496 33.0469C58.1985 33.0469 59.1086 33.4239 59.7797 34.0949C60.4507 34.7659 60.8277 35.676 60.8277 36.625C60.8277 37.574 60.4507 38.4841 59.7797 39.1551C59.1086 39.8261 58.1985 40.2031 57.2496 40.2031C56.3006 40.2031 55.3905 40.5801 54.7194 41.2511C54.0484 41.9222 53.6714 42.8323 53.6714 43.7812C53.6714 44.7302 54.0484 45.6403 54.7194 46.3114C55.3905 46.9824 56.3006 47.3594 57.2496 47.3594C58.1985 47.3594 59.1086 47.7364 59.7797 48.4074C60.4507 49.0784 60.8277 49.9885 60.8277 50.9375C60.8277 51.8865 60.4507 52.7966 59.7797 53.4676C59.1086 54.1386 58.1985 54.5156 57.2496 54.5156C56.3006 54.5156 55.3905 54.8926 54.7194 55.5636C54.0484 56.2347 53.6714 57.1448 53.6714 58.0938C53.6714 59.0427 54.0484 59.9528 54.7194 60.6239C55.3905 61.2949 56.3006 61.6719 57.2496 61.6719C58.1985 61.6719 59.1086 62.0489 59.7797 62.7199C60.4507 63.3909 60.8277 64.301 60.8277 65.25C60.8277 66.199 60.4507 67.1091 59.7797 67.7801C59.1086 68.4511 58.1985 68.8281 57.2496 68.8281Z" fill="#62CA9F"/>
<path d="M57.4862 40.1533C58.1771 40.1099 58.8399 39.8642 59.3922 39.4468C59.9445 39.0295 60.3617 38.4589 60.592 37.8061C59.902 37.8522 59.2404 38.0989 58.6886 38.5159C58.1369 38.9329 57.719 39.502 57.4862 40.1533ZM60.592 23.4936C59.902 23.5397 59.2404 23.7864 58.6886 24.2034C58.1369 24.6204 57.719 25.1895 57.4862 25.8408C58.1771 25.7974 58.8399 25.5517 59.3922 25.1343C59.9445 24.717 60.3617 24.1464 60.592 23.4936ZM50.0938 55.6466C50.0938 52.8986 51.1315 50.3939 52.8347 48.4903C51.0655 46.5266 50.0865 43.9772 50.0865 41.3341C50.0865 38.691 51.0655 36.1415 52.8347 34.1778C51.0194 32.1576 50.0409 29.5223 50.0981 26.8069C50.1552 24.0915 51.2437 21.4996 53.1424 19.5576C51.5609 20.2161 50.1598 21.2434 49.0562 22.5536C47.9525 23.8638 47.1782 25.419 46.7979 27.0893C46.4176 28.7597 46.4423 30.4968 46.87 32.1557C47.2977 33.8145 48.116 35.347 49.2565 36.6253C47.4859 38.5883 46.5059 41.138 46.5059 43.7815C46.5059 46.4251 47.4859 48.9748 49.2565 50.9378C47.8819 52.4839 46.9826 54.394 46.6667 56.4386C46.3508 58.4832 46.6317 60.5756 47.4757 62.4645C48.3196 64.3535 49.6908 65.9587 51.4246 67.0875C53.1584 68.2164 55.1812 68.8208 57.2501 68.8284C57.9986 68.8243 58.7266 68.5831 59.3296 68.1396C59.9326 67.696 60.3795 67.0729 60.6064 66.3595C57.8018 66.3015 55.1313 65.148 53.1665 63.1458C51.2018 61.1436 50.0988 58.4518 50.0938 55.6466Z" fill="#58BC92"/>
<path d="M57.4863 54.4654C58.1759 54.4206 58.8372 54.1743 59.3881 53.7571C59.939 53.3398 60.3551 52.7699 60.585 52.1182C59.8959 52.1647 59.2355 52.4117 58.6849 52.8288C58.1344 53.2458 57.7178 53.8147 57.4863 54.4654Z" fill="#58BC92"/>
<path d="M155.52 76.4067C152.772 76.4067 150.024 75.3619 147.927 73.2723C147.255 72.6014 146.878 71.691 146.877 70.7415C146.876 69.792 147.253 68.8811 147.924 68.2093C148.595 67.5374 149.505 67.1595 150.455 67.1589C151.404 67.1582 152.315 67.5347 152.987 68.2057C153.319 68.5379 153.714 68.8013 154.149 68.9809C154.583 69.1605 155.049 69.2528 155.519 69.2525C155.989 69.2521 156.455 69.1592 156.889 68.979C157.323 68.7988 157.718 68.5348 158.05 68.2021C158.382 67.8694 158.645 67.4746 158.825 67.0401C159.005 66.6056 159.097 66.14 159.097 65.6698C159.096 65.1997 159.003 64.7342 158.823 64.3C158.643 63.8657 158.379 63.4713 158.046 63.1391C157.711 62.8076 157.445 62.4131 157.264 61.9783C157.083 61.5434 156.989 61.0769 156.989 60.6057C156.989 60.1346 157.083 59.668 157.264 59.2332C157.445 58.7984 157.711 58.4038 158.046 58.0724C158.717 57.4016 159.627 57.0248 160.576 57.0248C161.525 57.0248 162.435 57.4016 163.106 58.0724C163.781 58.7242 164.684 59.0849 165.623 59.0767C166.561 59.0686 167.458 58.6923 168.122 58.0288C168.785 57.3654 169.161 56.468 169.17 55.5298C169.178 54.5916 168.817 53.6878 168.165 53.013C167.83 52.6816 167.564 52.287 167.383 51.8522C167.201 51.4173 167.108 50.9508 167.108 50.4796C167.108 50.0085 167.201 49.542 167.383 49.1071C167.564 48.6723 167.83 48.2777 168.165 47.9463C168.836 47.2755 169.746 46.8987 170.695 46.8987C171.644 46.8987 172.554 47.2755 173.225 47.9463C173.908 48.5936 174.813 48.9544 175.754 48.9544C176.696 48.9544 177.601 48.5936 178.284 47.9463C178.618 47.6146 178.882 47.2198 179.061 46.7848C179.241 46.3498 179.332 45.8835 179.329 45.413C179.331 44.9437 179.239 44.4788 179.06 44.0451C178.881 43.6114 178.617 43.2177 178.284 42.8869C177.951 42.5547 177.687 42.1602 177.507 41.7259C177.327 41.2917 177.234 40.8262 177.234 40.3561C177.233 39.8859 177.326 39.4203 177.505 38.9858C177.685 38.5514 177.948 38.1565 178.281 37.8238C178.613 37.4911 179.007 37.2272 179.442 37.0469C179.876 36.8667 180.341 36.7738 180.811 36.7734C181.281 36.7731 181.747 36.8654 182.182 37.045C182.616 37.2246 183.011 37.488 183.344 37.8202C185.369 39.8455 186.485 42.5434 186.485 45.413C186.487 48.158 185.437 50.7994 183.551 52.7936C181.665 54.7878 179.086 55.9829 176.345 56.1331C176.205 58.7735 175.094 61.2688 173.224 63.1384C171.354 65.0081 168.859 66.1197 166.219 66.2592C166.076 68.8068 165.038 71.3186 163.091 73.258C161.023 75.3619 158.268 76.4067 155.52 76.4067Z" fill="#B5F6FF"/>
<path d="M159.227 58.0935C159.812 58.6669 160.577 59.0197 161.393 59.0915C162.209 59.1633 163.024 58.9496 163.7 58.4871C163.507 58.3582 163.285 58.2724 163.113 58.0935C162.529 57.52 161.763 57.1672 160.947 57.0954C160.132 57.0237 159.316 57.2373 158.64 57.6999C158.834 57.8287 159.055 57.9217 159.227 58.0935ZM169.346 47.9745C169.94 48.5316 170.705 48.872 171.517 48.9408C172.328 49.0096 173.139 48.8028 173.819 48.3538C173.618 48.225 173.404 48.1463 173.232 47.9745C172.647 47.401 171.882 47.0483 171.066 46.9765C170.25 46.9047 169.435 47.1184 168.759 47.5809C168.953 47.7097 169.174 47.8028 169.346 47.9745ZM149.108 68.2124C149.693 68.7859 150.458 69.1386 151.274 69.2104C152.09 69.2822 152.905 69.0686 153.581 68.606C153.388 68.4772 153.166 68.3913 152.994 68.2124C152.408 67.6412 151.642 67.2906 150.827 67.2202C150.011 67.1497 149.197 67.3638 148.521 67.826C148.715 67.9548 148.937 68.0406 149.108 68.2124Z" fill="#76ADB5"/>
<path d="M183.351 37.8486C182.765 37.2775 181.999 36.9269 181.183 36.8564C180.368 36.786 179.553 37 178.878 37.4622C179.071 37.591 179.293 37.6769 179.465 37.8486C181.49 39.8738 182.606 42.5717 182.606 45.4414C182.609 48.1864 181.559 50.8278 179.672 52.822C177.786 54.8161 175.207 56.0113 172.466 56.1615C172.327 58.8018 171.215 61.2972 169.345 63.1668C167.476 65.0364 164.98 66.1481 162.34 66.2876C162.197 68.8352 161.159 71.347 159.213 73.2864C157.624 74.8751 155.627 75.6622 153.566 76.0415C154.218 76.1632 154.847 76.4208 155.506 76.4208C158.251 76.4267 160.893 75.3787 162.888 73.4932C164.882 71.6076 166.077 69.0284 166.226 66.2876C168.865 66.145 171.359 65.0323 173.228 63.1633C175.097 61.2943 176.209 58.8008 176.352 56.1615C179.093 56.013 181.673 54.8184 183.56 52.8238C185.447 50.8293 186.496 48.1869 186.492 45.4414C186.498 44.0308 186.223 42.633 185.684 41.3295C185.145 40.0261 184.352 38.8428 183.351 37.8486Z" fill="#76ADB5"/>
<path d="M115.752 161.573C115.131 161.573 114.521 161.411 113.981 161.104C113.442 160.797 112.991 160.354 112.675 159.82C111.611 158.038 111.087 155.986 111.166 153.913C111.245 151.839 111.925 149.833 113.122 148.138C114.319 146.444 115.982 145.133 117.91 144.364C119.838 143.596 121.947 143.404 123.982 143.811C124.747 141.378 126.379 139.203 128.741 137.807C131.095 136.405 133.757 136.018 136.29 136.512C137.078 133.986 138.752 131.868 141.049 130.508C142.26 129.783 143.603 129.306 145 129.106C146.397 128.906 147.82 128.986 149.186 129.341C151.963 130.05 154.303 131.803 155.763 134.265C156.002 134.67 156.16 135.118 156.226 135.584C156.292 136.05 156.266 136.524 156.15 136.98C156.033 137.436 155.827 137.865 155.544 138.241C155.262 138.617 154.908 138.934 154.503 139.174C154.098 139.414 153.65 139.571 153.184 139.638C152.718 139.704 152.243 139.678 151.788 139.561C151.332 139.444 150.903 139.239 150.527 138.956C150.151 138.673 149.833 138.32 149.594 137.915C149.236 137.301 148.704 136.808 148.064 136.499C147.425 136.19 146.708 136.079 146.005 136.181C145.302 136.282 144.645 136.592 144.12 137.069C143.594 137.546 143.222 138.169 143.053 138.859C142.936 139.314 142.911 139.787 142.978 140.251C143.046 140.716 143.205 141.162 143.447 141.564C143.839 142.374 143.913 143.302 143.654 144.164C143.395 145.025 142.822 145.759 142.048 146.218C141.275 146.678 140.357 146.831 139.476 146.646C138.595 146.461 137.816 145.953 137.292 145.221C136.805 144.406 136.016 143.817 135.096 143.582C134.176 143.348 133.201 143.487 132.383 143.969C131.568 144.456 130.979 145.245 130.744 146.165C130.509 147.085 130.648 148.06 131.131 148.878C131.615 149.696 131.754 150.673 131.518 151.593C131.282 152.514 130.689 153.303 129.871 153.787C129.053 154.271 128.076 154.41 127.156 154.174C126.235 153.938 125.446 153.346 124.962 152.528C124.725 152.122 124.41 151.767 124.034 151.486C123.657 151.204 123.228 151.001 122.772 150.889C122.087 150.716 121.367 150.749 120.701 150.985C120.035 151.221 119.454 151.649 119.031 152.214C118.608 152.78 118.362 153.458 118.323 154.163C118.285 154.868 118.456 155.569 118.815 156.177C119.137 156.719 119.31 157.336 119.316 157.966C119.322 158.596 119.162 159.217 118.851 159.765C118.54 160.313 118.089 160.769 117.545 161.087C117.001 161.404 116.382 161.572 115.752 161.573Z" fill="#55FFB8"/>
<path d="M116.719 159.827C115.997 158.615 115.521 157.273 115.319 155.877C115.117 154.481 115.192 153.059 115.54 151.692C115.889 150.325 116.503 149.041 117.349 147.912C118.195 146.783 119.255 145.832 120.469 145.114C121.557 144.463 122.745 144.048 123.961 143.819C121.376 143.295 118.688 143.757 116.426 145.114C115.211 145.83 114.15 146.78 113.305 147.909C112.46 149.038 111.847 150.323 111.502 151.691C111.15 153.057 111.072 154.48 111.273 155.877C111.475 157.273 111.951 158.616 112.676 159.827C113.162 160.64 113.951 161.228 114.869 161.463C115.787 161.697 116.761 161.56 117.578 161.08C117.671 161.029 117.714 160.936 117.8 160.879C117.371 160.607 117.003 160.248 116.719 159.827ZM129.021 152.521C128.784 152.115 128.468 151.76 128.092 151.479C127.716 151.197 127.287 150.994 126.831 150.882C126.375 150.764 125.901 150.738 125.435 150.805C124.969 150.873 124.522 151.033 124.119 151.275C124.047 151.318 124.004 151.39 123.94 151.433C124.348 151.719 124.713 152.077 124.97 152.521C125.456 153.337 126.245 153.928 127.166 154.162C128.086 154.397 129.062 154.257 129.879 153.773C129.951 153.73 129.972 153.651 130.044 153.608C129.63 153.322 129.281 152.952 129.021 152.521ZM128.033 143.819C128.799 141.386 130.43 139.21 132.792 137.815C135.146 136.412 137.809 136.025 140.342 136.519C140.915 134.677 141.979 133.026 143.421 131.744C144.862 130.462 146.625 129.597 148.521 129.241C145.945 128.726 143.268 129.185 141.01 130.529C138.752 131.874 137.073 134.008 136.299 136.519C133.708 135.996 131.016 136.458 128.749 137.815C126.387 139.217 124.763 141.378 123.997 143.811C125.314 143.561 126.673 143.54 128.033 143.819ZM141.344 145.221C140.857 144.406 140.067 143.817 139.147 143.582C138.228 143.348 137.252 143.487 136.435 143.969C136.363 144.012 136.32 144.083 136.256 144.134C136.664 144.42 137.021 144.77 137.293 145.228C137.779 146.043 138.567 146.632 139.487 146.866C140.406 147.099 141.38 146.958 142.195 146.474C142.267 146.431 142.288 146.352 142.353 146.309C141.944 146.021 141.601 145.65 141.344 145.221ZM153.645 137.922C153.406 137.517 153.09 137.163 152.714 136.881C152.337 136.599 151.909 136.395 151.453 136.279C150.998 136.163 150.524 136.139 150.059 136.207C149.593 136.275 149.146 136.435 148.743 136.677C148.672 136.72 148.629 136.791 148.564 136.834C148.972 137.12 149.337 137.478 149.595 137.922C150.08 138.738 150.87 139.329 151.79 139.564C152.711 139.798 153.687 139.658 154.504 139.174C154.576 139.131 154.611 139.06 154.683 139.017C154.262 138.731 153.908 138.357 153.645 137.922Z" fill="#2BC685"/>
<path d="M107.344 22.3125C111.296 22.3125 114.5 19.1085 114.5 15.1562C114.5 11.204 111.296 8 107.344 8C103.391 8 100.188 11.204 100.188 15.1562C100.188 19.1085 103.391 22.3125 107.344 22.3125Z" fill="#B5F6FF"/>
<path d="M164.594 22.3125C168.546 22.3125 171.75 19.1085 171.75 15.1562C171.75 11.204 168.546 8 164.594 8C160.641 8 157.438 11.204 157.438 15.1562C157.438 19.1085 160.641 22.3125 164.594 22.3125Z" fill="#55FFB8"/>
<path d="M193.219 93.875C197.171 93.875 200.375 90.671 200.375 86.7187C200.375 82.7665 197.171 79.5625 193.219 79.5625C189.266 79.5625 186.062 82.7665 186.062 86.7187C186.062 90.671 189.266 93.875 193.219 93.875Z" fill="#5CEBFF"/>
<path d="M28.625 122.5C32.5773 122.5 35.7812 119.296 35.7812 115.344C35.7812 111.391 32.5773 108.188 28.625 108.188C24.6727 108.188 21.4688 111.391 21.4688 115.344C21.4688 119.296 24.6727 122.5 28.625 122.5Z" fill="#4C4EF0"/>
<path d="M107.344 8C106.422 8.00615 105.511 8.19085 104.66 8.54388C105.977 9.07739 107.104 9.9917 107.897 11.1697C108.691 12.3477 109.115 13.7358 109.115 15.1562C109.115 16.5767 108.691 17.9648 107.897 19.1428C107.104 20.3208 105.977 21.2351 104.66 21.7686C105.511 22.1216 106.422 22.3063 107.344 22.3125C109.242 22.3125 111.062 21.5585 112.404 20.2165C113.746 18.8744 114.5 17.0542 114.5 15.1562C114.5 13.2583 113.746 11.4381 112.404 10.096C111.062 8.75396 109.242 8 107.344 8Z" fill="#76ADB5"/>
<path d="M164.594 8C163.672 8.00615 162.761 8.19085 161.91 8.54388C163.227 9.07739 164.354 9.9917 165.147 11.1697C165.941 12.3477 166.365 13.7358 166.365 15.1562C166.365 16.5767 165.941 17.9648 165.147 19.1428C164.354 20.3208 163.227 21.2351 161.91 21.7686C162.761 22.1216 163.672 22.3063 164.594 22.3125C166.492 22.3125 168.312 21.5585 169.654 20.2165C170.996 18.8744 171.75 17.0542 171.75 15.1562C171.75 13.2583 170.996 11.4381 169.654 10.096C168.312 8.75396 166.492 8 164.594 8Z" fill="#2BC685"/>
<path d="M193.219 79.5625C192.297 79.5687 191.386 79.7534 190.535 80.1064C191.852 80.6399 192.979 81.5542 193.772 82.7322C194.566 83.9102 194.99 85.2983 194.99 86.7187C194.99 88.1392 194.566 89.5273 193.772 90.7053C192.979 91.8833 191.852 92.7976 190.535 93.3311C191.386 93.6842 192.297 93.8688 193.219 93.875C195.117 93.875 196.937 93.121 198.279 91.779C199.621 90.4369 200.375 88.6167 200.375 86.7187C200.375 84.8208 199.621 83.0006 198.279 81.6585C196.937 80.3165 195.117 79.5625 193.219 79.5625Z" fill="#46E1F7"/>
<path d="M28.625 108.188C27.7037 108.194 26.7924 108.378 25.9414 108.731C27.2578 109.265 28.385 110.179 29.1787 111.357C29.9724 112.535 30.3963 113.923 30.3963 115.344C30.3963 116.764 29.9724 118.152 29.1787 119.33C28.385 120.508 27.2578 121.423 25.9414 121.956C26.7924 122.309 27.7037 122.494 28.625 122.5C30.523 122.5 32.3432 121.746 33.6852 120.404C35.0273 119.062 35.7812 117.242 35.7812 115.344C35.7812 113.446 35.0273 111.626 33.6852 110.284C32.3432 108.941 30.523 108.188 28.625 108.188Z" fill="#03045E"/>
<path d="M171.75 165.438C175.702 165.438 178.906 162.234 178.906 158.281C178.906 154.329 175.702 151.125 171.75 151.125C167.798 151.125 164.594 154.329 164.594 158.281C164.594 162.234 167.798 165.438 171.75 165.438Z" fill="#4C4EF0"/>
<path d="M171.75 151.125C170.829 151.131 169.917 151.316 169.066 151.669C170.383 152.202 171.51 153.117 172.304 154.295C173.097 155.473 173.521 156.861 173.521 158.281C173.521 159.702 173.097 161.09 172.304 162.268C171.51 163.446 170.383 164.36 169.066 164.894C169.917 165.247 170.829 165.431 171.75 165.438C173.648 165.438 175.468 164.684 176.81 163.341C178.152 161.999 178.906 160.179 178.906 158.281C178.906 156.383 178.152 154.563 176.81 153.221C175.468 151.879 173.648 151.125 171.75 151.125Z" fill="#03045E"/>
<path d="M189.076 133.506C188.226 133.505 187.404 133.201 186.757 132.649C186.111 132.097 185.682 131.333 185.548 130.494C185.176 128.164 184.59 125.874 183.795 123.652C183.48 122.756 183.533 121.772 183.944 120.916C184.355 120.06 185.089 119.402 185.984 119.087C186.88 118.772 187.865 118.825 188.721 119.236C189.577 119.647 190.235 120.381 190.55 121.276C191.473 123.907 192.165 126.612 192.618 129.363C192.699 129.875 192.668 130.398 192.527 130.896C192.386 131.395 192.139 131.857 191.802 132.251C191.465 132.645 191.047 132.961 190.577 133.178C190.106 133.394 189.594 133.507 189.076 133.506Z" fill="#4C4EF0"/>
<path d="M85.9886 29.7622C85.1093 29.7636 84.2605 29.4399 83.6055 28.8533C82.6263 27.9805 81.6066 27.1543 80.5498 26.3773C79.8156 25.8031 79.3344 24.9652 79.2086 24.0417C79.0827 23.1182 79.3222 22.182 79.876 21.4324C80.4299 20.6828 81.2543 20.1788 82.1741 20.0278C83.0938 19.8767 84.0361 20.0905 84.8006 20.6236C86.0357 21.5358 87.2273 22.5053 88.3716 23.5291C88.9072 24.013 89.2839 24.6475 89.4523 25.3494C89.6206 26.0513 89.5728 26.7877 89.315 27.4619C89.0573 28.1361 88.6016 28.7166 88.008 29.1271C87.4143 29.5376 86.7103 29.759 85.9886 29.7622Z" fill="#55FFB8"/>
<path d="M120.182 83.2553C119.481 83.2568 118.795 83.0523 118.209 82.6673C117.623 82.2823 117.163 81.7336 116.886 81.0894C116.61 80.4453 116.528 79.734 116.652 79.044C116.776 78.354 117.1 77.7157 117.584 77.2082C127.107 67.2423 132.41 53.9808 132.383 40.1961C132.383 32.0881 130.501 23.9514 126.951 16.6735C126.722 16.2491 126.581 15.7826 126.536 15.3022C126.492 14.8218 126.545 14.3373 126.692 13.8779C126.84 13.4185 127.079 12.9937 127.394 12.629C127.71 12.2643 128.097 11.9672 128.53 11.7557C128.964 11.5442 129.436 11.4226 129.918 11.3981C130.4 11.3737 130.882 11.447 131.334 11.6136C131.787 11.7802 132.202 12.0367 132.553 12.3675C132.904 12.6984 133.185 13.0969 133.378 13.5391C137.419 21.8474 139.523 30.9642 139.532 40.2033C139.561 55.8247 133.551 70.8528 122.758 82.146C122.428 82.4983 122.029 82.7786 121.586 82.9695C121.142 83.1603 120.664 83.2576 120.182 83.2553Z" fill="#62CA9F"/>
<path d="M57.25 83.1406C59.2261 83.1406 60.8281 81.5386 60.8281 79.5625C60.8281 77.5864 59.2261 75.9844 57.25 75.9844C55.2739 75.9844 53.6719 77.5864 53.6719 79.5625C53.6719 81.5386 55.2739 83.1406 57.25 83.1406Z" fill="#62CA9F"/>
</svg>
